<svg xmlns="http://www.w3.org/2000/svg" xmlns:xlink="http://www.w3.org/1999/xlink" width="500" zoomAndPan="magnify" viewBox="0 0 375 374.999991" height="500" preserveAspectRatio="xMidYMid meet" version="1.0"><path fill="#000000" d="M 225.65625 158.53125 L 225.660156 158.53125 L 225.660156 158.507812 Z M 225.65625 158.53125 " fill-opacity="1" fill-rule="nonzero"/><path fill="#f2bb30" d="M 240.890625 222.671875 C 251.171875 222.671875 254.976562 215.5 258.550781 204.746094 C 262.253906 193.671875 262.09375 183.019531 258.550781 168.832031 C 256 158.617188 251.179688 150.90625 240.890625 150.90625 L 227.636719 150.90625 L 227.636719 166.59375 C 227.636719 178.757812 217.316406 189.011719 205.550781 189.011719 L 170.226562 189.011719 C 160.566406 189.011719 152.566406 197.277344 152.566406 206.96875 L 152.566406 240.636719 C 152.566406 250.222656 160.902344 255.84375 170.226562 258.59375 C 181.402344 261.863281 192.15625 262.457031 205.542969 258.59375 C 214.4375 256.011719 223.203125 250.816406 223.203125 240.636719 L 223.203125 227.171875 L 187.914062 227.171875 L 187.914062 222.679688 L 240.890625 222.679688 Z M 207.757812 236.136719 C 211.425781 236.136719 214.40625 239.148438 214.40625 242.851562 C 214.40625 246.59375 211.433594 249.597656 207.757812 249.597656 C 204.117188 249.597656 201.109375 246.554688 201.109375 242.851562 C 201.148438 239.109375 204.128906 236.136719 207.757812 236.136719 Z M 207.757812 236.136719 " fill-opacity="1" fill-rule="nonzero"/><path fill="#35668f" d="M 134.375 222.679688 L 146.511719 222.679688 L 146.511719 206.535156 C 146.511719 194.863281 156.597656 184.574219 168.597656 184.574219 L 203.914062 184.574219 C 213.734375 184.574219 221.574219 176.476562 221.574219 166.617188 L 221.574219 132.925781 C 221.574219 123.339844 213.507812 116.15625 203.914062 114.542969 C 192.074219 112.585938 179.210938 112.699219 168.597656 114.582031 L 168.605469 114.574219 C 153.65625 117.214844 150.949219 122.734375 150.949219 132.949219 L 150.949219 146.414062 L 186.300781 146.414062 L 186.300781 150.914062 L 137.683594 150.914062 C 127.402344 150.914062 118.402344 157.097656 115.597656 168.839844 C 112.359375 182.300781 112.226562 190.699219 115.597656 204.753906 C 118.105469 215.203125 124.097656 222.679688 134.375 222.679688 Z M 166.390625 137.417969 C 162.722656 137.417969 159.742188 134.40625 159.742188 130.703125 C 159.785156 126.964844 162.722656 123.957031 166.390625 123.957031 C 170.03125 123.957031 173.035156 126.992188 173.035156 130.703125 C 173.035156 134.414062 170.0625 137.417969 166.390625 137.417969 Z M 166.390625 137.417969 " fill-opacity="1" fill-rule="nonzero"/></svg>