<svg xmlns="http://www.w3.org/2000/svg" xmlns:xlink="http://www.w3.org/1999/xlink" width="500" zoomAndPan="magnify" viewBox="0 0 375 374.999991" height="500" preserveAspectRatio="xMidYMid meet" version="1.0"><defs><clipPath id="95a53c7eb2"><path d="M 153 180.132812 L 174 180.132812 L 174 204 L 153 204 Z M 153 180.132812 " clip-rule="nonzero"/></clipPath><clipPath id="c59039b019"><path d="M 174 180.132812 L 204 180.132812 L 204 204 L 174 204 Z M 174 180.132812 " clip-rule="nonzero"/></clipPath><clipPath id="d3986f6a5d"><path d="M 208 180.132812 L 222 180.132812 L 222 204 L 208 204 Z M 208 180.132812 " clip-rule="nonzero"/></clipPath><clipPath id="e65c8a1eb8"><path d="M 150 207 L 221 207 L 221 227.382812 L 150 227.382812 Z M 150 207 " clip-rule="nonzero"/></clipPath></defs><g clip-path="url(#95a53c7eb2)"><path fill="#000000" d="M 171.054688 203.46875 C 170.691406 203.46875 170.320312 203.386719 169.980469 203.214844 C 169.535156 202.992188 165.65625 200.804688 165.65625 192.714844 C 165.65625 192.023438 165.6875 191.3125 165.71875 190.605469 C 165.808594 188.710938 165.898438 186.75 165.164062 185.972656 C 164.660156 185.441406 163.535156 185.160156 161.910156 185.160156 C 158.992188 185.160156 157.992188 186.769531 157.890625 186.953125 C 157.261719 188.058594 155.859375 188.484375 154.746094 187.882812 C 153.636719 187.277344 153.1875 185.921875 153.757812 184.785156 C 154.5625 183.183594 157.1875 180.464844 161.910156 180.464844 C 164.925781 180.464844 167.09375 181.207031 168.535156 182.730469 C 170.648438 184.960938 170.5 188.074219 170.375 190.828125 C 170.34375 191.460938 170.3125 192.097656 170.3125 192.714844 C 170.3125 197.78125 172.152344 199.0625 172.171875 199.074219 C 173.324219 199.652344 173.730469 201.03125 173.15625 202.191406 C 172.753906 203.007812 171.917969 203.46875 171.054688 203.46875 Z M 171.054688 203.46875 " fill-opacity="1" fill-rule="nonzero"/></g><path fill="#000000" d="M 161.910156 203.457031 C 156.335938 203.457031 153.507812 201.128906 153.507812 196.535156 C 153.507812 191.984375 157.734375 189.605469 161.910156 189.605469 C 167.199219 189.605469 169.304688 191.5625 169.675781 191.957031 C 170.421875 192.75 170.507812 193.933594 169.953125 194.820312 C 170.648438 195.46875 170.902344 196.507812 170.511719 197.441406 C 170.410156 197.683594 167.945312 203.457031 161.910156 203.457031 Z M 161.910156 194.300781 C 160.460938 194.300781 158.164062 194.90625 158.164062 196.535156 C 158.164062 197.832031 158.164062 198.769531 161.910156 198.769531 C 164.835938 198.769531 166.203125 195.660156 166.21875 195.628906 C 166.265625 195.503906 166.324219 195.390625 166.394531 195.285156 C 166.382812 195.277344 166.378906 195.269531 166.371094 195.261719 C 166.246094 195.167969 165.023438 194.300781 161.910156 194.300781 Z M 161.910156 194.300781 " fill-opacity="1" fill-rule="nonzero"/><g clip-path="url(#c59039b019)"><path fill="#000000" d="M 195.25 203.457031 C 194.246094 203.457031 193.359375 202.8125 193.042969 201.855469 L 189.175781 190.195312 L 185.3125 201.855469 C 184.992188 202.8125 184.105469 203.457031 183.105469 203.457031 C 182.105469 203.457031 181.214844 202.8125 180.898438 201.855469 L 174.820312 183.535156 C 174.410156 182.304688 175.070312 180.976562 176.289062 180.566406 C 177.511719 180.152344 178.828125 180.820312 179.238281 182.046875 L 183.101562 193.707031 L 186.964844 182.046875 C 187.28125 181.089844 188.171875 180.445312 189.171875 180.445312 C 190.171875 180.445312 191.0625 181.089844 191.378906 182.046875 L 195.25 193.710938 L 199.113281 182.066406 C 199.519531 180.839844 200.839844 180.167969 202.058594 180.585938 C 203.277344 180.996094 203.9375 182.328125 203.53125 183.554688 L 197.457031 201.851562 C 197.140625 202.8125 196.25 203.457031 195.25 203.457031 Z M 195.25 203.457031 " fill-opacity="1" fill-rule="nonzero"/></g><g clip-path="url(#d3986f6a5d)"><path fill="#000000" d="M 215.144531 203.457031 L 210.429688 203.457031 C 209.144531 203.457031 208.101562 202.40625 208.101562 201.113281 C 208.101562 199.816406 209.144531 198.765625 210.429688 198.765625 L 215.144531 198.765625 C 216.285156 198.765625 217.214844 197.832031 217.214844 196.6875 C 217.214844 195.769531 216.644531 194.980469 215.800781 194.695312 L 212.703125 193.65625 C 209.953125 192.734375 208.101562 190.152344 208.101562 187.234375 C 208.101562 183.5 211.121094 180.460938 214.832031 180.460938 L 219.542969 180.460938 C 220.828125 180.460938 221.871094 181.515625 221.871094 182.808594 C 221.871094 184.105469 220.828125 185.15625 219.542969 185.15625 L 214.832031 185.15625 C 213.6875 185.15625 212.757812 186.089844 212.757812 187.234375 C 212.757812 188.128906 213.328125 188.921875 214.175781 189.203125 L 217.269531 190.242188 C 220.023438 191.164062 221.871094 193.746094 221.871094 196.664062 C 221.871094 200.421875 218.851562 203.457031 215.144531 203.457031 Z M 215.144531 203.457031 " fill-opacity="1" fill-rule="nonzero"/></g><g clip-path="url(#e65c8a1eb8)"><path fill="#000000" d="M 186.894531 227.382812 C 162.664062 227.382812 151.292969 211.378906 150.824219 210.695312 C 150.085938 209.632812 150.34375 208.171875 151.398438 207.429688 C 152.449219 206.691406 153.902344 206.949219 154.636719 208.007812 C 155.054688 208.601562 165.179688 222.6875 186.894531 222.6875 C 202.90625 222.6875 216.269531 210.855469 216.402344 210.738281 C 217.367188 209.875 218.839844 209.960938 219.691406 210.929688 C 220.546875 211.898438 220.460938 213.382812 219.5 214.246094 C 218.902344 214.78125 204.660156 227.382812 186.894531 227.382812 Z M 186.894531 227.382812 " fill-opacity="1" fill-rule="nonzero"/></g><path fill="#000000" d="M 219.472656 222.851562 C 219.289062 222.851562 219.101562 222.832031 218.914062 222.785156 C 217.667969 222.472656 216.902344 221.203125 217.214844 219.941406 L 219.394531 211.046875 L 210.71875 213.238281 C 209.464844 213.542969 208.207031 212.785156 207.890625 211.53125 C 207.578125 210.277344 208.339844 209 209.585938 208.683594 L 222.011719 205.550781 C 222.804688 205.351562 223.644531 205.582031 224.222656 206.164062 C 224.800781 206.746094 225.035156 207.589844 224.839844 208.386719 L 221.734375 221.070312 C 221.46875 222.140625 220.519531 222.851562 219.472656 222.851562 Z M 219.472656 222.851562 " fill-opacity="1" fill-rule="nonzero"/></svg>